<svg xmlns="http://www.w3.org/2000/svg" viewBox="0 0 687 256" width="687" height="256"><title>Kairo Workspaces logo, horizontal</title><path fill="#1F305E" d="M48,26 L48,26 C61.255,26 72,36.745 72,50 L72,206 C72,219.255 61.255,230 48,230 L48,230 C34.745,230 24,219.255 24,206 L24,50 C24,36.745 34.745,26 48,26 Z"/><path fill="#1F305E" d="M79.273,121.487 L159.273,187.487 Q162.956,190.525 165.195,194.741 Q167.435,198.957 167.89,203.709 Q168.346,208.461 166.949,213.026 Q165.551,217.591 162.513,221.273 Q159.475,224.956 155.259,227.195 Q151.043,229.435 146.291,229.89 Q141.539,230.346 136.974,228.949 Q132.409,227.551 128.727,224.513 L48.727,158.513 Q45.044,155.475 42.805,151.259 Q40.565,147.043 40.11,142.291 Q39.654,137.539 41.051,132.974 Q42.449,128.409 45.487,124.727 Q48.525,121.044 52.741,118.805 Q56.957,116.565 61.709,116.11 Q66.461,115.654 71.026,117.051 Q75.591,118.449 79.273,121.487 Z"/><path fill="#E8B04B" d="M167,94 C167,115.539 149.539,133 128,133 C106.461,133 89,115.539 89,94 C89,72.461 106.461,55 128,55 C149.539,55 167,72.461 167,94 Z"/><path fill="#1F305E" d="M275,24 L275,141 Q275,144.728 272.364,147.364 Q269.728,150 266,150 Q262.272,150 259.636,147.364 Q257,144.728 257,141 L257,24 Q257,20.272 259.636,17.636 Q262.272,15 266,15 Q269.728,15 272.364,17.636 Q275,20.272 275,24 Z"/><path fill="#1F305E" d="M334.209,76.34 L278.409,115.94 Q275.369,118.097 271.693,117.473 Q268.018,116.849 265.86,113.809 Q263.703,110.769 264.327,107.093 Q264.951,103.418 267.991,101.26 L323.791,61.66 Q326.831,59.503 330.507,60.127 Q334.182,60.751 336.34,63.791 Q338.497,66.831 337.873,70.507 Q337.249,74.182 334.209,76.34 Z"/><path fill="#1F305E" d="M299.891,90.211 L337.691,135.211 Q340.089,138.066 339.766,141.78 Q339.443,145.494 336.589,147.891 Q333.734,150.289 330.02,149.966 Q326.306,149.643 323.909,146.789 L286.109,101.789 Q283.711,98.934 284.034,95.22 Q284.357,91.506 287.211,89.109 Q290.066,86.711 293.78,87.034 Q297.494,87.357 299.891,90.211 Z"/><path fill="#1F305E" d="M446,105 Q446,123.64 432.82,136.82 Q419.64,150 401,150 Q382.36,150 369.18,136.82 Q356,123.64 356,105 Q356,86.36 369.18,73.18 Q382.36,60 401,60 Q419.64,60 432.82,73.18 Q446,86.36 446,105 Z M428,105 Q428,93.816 420.092,85.908 Q412.184,78 401,78 Q389.816,78 381.908,85.908 Q374,93.816 374,105 Q374,116.184 381.908,124.092 Q389.816,132 401,132 Q412.184,132 420.092,124.092 Q428,116.184 428,105 Z"/><path fill="#1F305E" d="M446,69 L446,141 Q446,144.728 443.364,147.364 Q440.728,150 437,150 Q433.272,150 430.636,147.364 Q428,144.728 428,141 L428,69 Q428,65.272 430.636,62.636 Q433.272,60 437,60 Q440.728,60 443.364,62.636 Q446,65.272 446,69 Z"/><path fill="#1F305E" d="M480.2,69 L480.2,141 Q480.2,144.728 477.564,147.364 Q474.928,150 471.2,150 Q467.472,150 464.836,147.364 Q462.2,144.728 462.2,141 L462.2,69 Q462.2,65.272 464.836,62.636 Q467.472,60 471.2,60 Q474.928,60 477.564,62.636 Q480.2,65.272 480.2,69 Z"/><path fill="#E8B04B" d="M482,31.2 C482,37.165 477.165,42 471.2,42 C465.235,42 460.4,37.165 460.4,31.2 C460.4,25.235 465.235,20.4 471.2,20.4 C477.165,20.4 482,25.235 482,31.2 Z"/><path fill="#1F305E" d="M514.4,69 L514.4,141 Q514.4,144.728 511.764,147.364 Q509.128,150 505.4,150 Q501.672,150 499.036,147.364 Q496.4,144.728 496.4,141 L496.4,69 Q496.4,65.272 499.036,62.636 Q501.672,60 505.4,60 Q509.128,60 511.764,62.636 Q514.4,65.272 514.4,69 Z"/><path fill="#1F305E" d="M496.4,105 Q496.4,86.36 509.58,73.18 Q522.76,60 541.4,60 L548.6,60 Q552.328,60 554.964,62.636 Q557.6,65.272 557.6,69 Q557.6,72.728 554.964,75.364 Q552.328,78 548.6,78 L541.4,78 Q530.216,78 522.308,85.908 Q514.4,93.816 514.4,105 Q514.4,108.728 511.764,111.364 Q509.128,114 505.4,114 Q501.672,114 499.036,111.364 Q496.4,108.728 496.4,105 Z"/><path fill="#1F305E" d="M663.8,105 Q663.8,123.64 650.62,136.82 Q637.44,150 618.8,150 Q600.16,150 586.98,136.82 Q573.8,123.64 573.8,105 Q573.8,86.36 586.98,73.18 Q600.16,60 618.8,60 Q637.44,60 650.62,73.18 Q663.8,86.36 663.8,105 Z M645.8,105 Q645.8,93.816 637.892,85.908 Q629.984,78 618.8,78 Q607.616,78 599.708,85.908 Q591.8,93.816 591.8,105 Q591.8,116.184 599.708,124.092 Q607.616,132 618.8,132 Q629.984,132 637.892,124.092 Q645.8,116.184 645.8,105 Z"/><path fill="#1F305E" d="M266.947,180.435 L270.93,195.3 L274.562,185.127 Q275.189,183.372 276.873,182.573 Q278.557,181.775 280.313,182.402 Q282.321,183.119 283.038,185.127 L286.67,195.3 L290.653,180.435 Q291.136,178.635 292.75,177.703 Q294.364,176.771 296.165,177.253 Q297.965,177.736 298.897,179.35 Q299.829,180.964 299.347,182.765 L291.628,211.565 Q291.017,213.845 288.794,214.638 Q287.039,215.265 285.355,214.467 Q283.67,213.668 283.044,211.913 L278.8,200.025 L274.556,211.913 Q273.763,214.136 271.483,214.747 Q269.683,215.229 268.069,214.297 Q266.454,213.365 265.972,211.565 L258.253,182.765 Q257.771,180.964 258.703,179.35 Q259.635,177.736 261.435,177.253 Q263.236,176.771 264.85,177.703 Q266.464,178.635 266.947,180.435 Z"/><path fill="#1F305E" d="M341.98,196 Q341.98,203.829 336.444,209.364 Q330.909,214.9 323.08,214.9 Q315.251,214.9 309.716,209.364 Q304.18,203.829 304.18,196 Q304.18,188.171 309.716,182.636 Q315.251,177.1 323.08,177.1 Q330.909,177.1 336.444,182.636 Q341.98,188.171 341.98,196 Z M332.98,196 Q332.98,191.899 330.08,189 Q327.181,186.1 323.08,186.1 Q318.979,186.1 316.08,189 Q313.18,191.899 313.18,196 Q313.18,200.101 316.08,203 Q318.979,205.9 323.08,205.9 Q327.181,205.9 330.08,203 Q332.98,200.101 332.98,196 Z"/><path fill="#1F305E" d="M355.66,181.6 L355.66,210.4 Q355.66,212.264 354.342,213.582 Q353.024,214.9 351.16,214.9 Q349.296,214.9 347.978,213.582 Q346.66,212.264 346.66,210.4 L346.66,181.6 Q346.66,179.736 347.978,178.418 Q349.296,177.1 351.16,177.1 Q353.024,177.1 354.342,178.418 Q355.66,179.736 355.66,181.6 Z"/><path fill="#1F305E" d="M346.66,196 Q346.66,188.171 352.196,182.636 Q357.731,177.1 365.56,177.1 L368.44,177.1 Q370.304,177.1 371.622,178.418 Q372.94,179.736 372.94,181.6 Q372.94,183.464 371.622,184.782 Q370.304,186.1 368.44,186.1 L365.56,186.1 Q361.459,186.1 358.56,189 Q355.66,191.899 355.66,196 Q355.66,197.864 354.342,199.182 Q353.024,200.5 351.16,200.5 Q349.296,200.5 347.978,199.182 Q346.66,197.864 346.66,196 Z"/><path fill="#1F305E" d="M386.62,163.6 L386.62,210.4 Q386.62,212.264 385.302,213.582 Q383.984,214.9 382.12,214.9 Q380.256,214.9 378.938,213.582 Q377.62,212.264 377.62,210.4 L377.62,163.6 Q377.62,161.736 378.938,160.418 Q380.256,159.1 382.12,159.1 Q383.984,159.1 385.302,160.418 Q386.62,161.736 386.62,163.6 Z"/><path fill="#1F305E" d="M409.924,185.27 L387.604,201.11 Q386.084,202.189 384.247,201.876 Q382.409,201.564 381.33,200.044 Q380.251,198.524 380.564,196.687 Q380.876,194.849 382.396,193.77 L404.716,177.93 Q406.236,176.851 408.073,177.164 Q409.911,177.476 410.99,178.996 Q412.069,180.516 411.757,182.353 Q411.444,184.191 409.924,185.27 Z"/><path fill="#1F305E" d="M396.366,189.506 L411.486,207.506 Q412.685,208.933 412.523,210.79 Q412.362,212.647 410.934,213.846 Q409.507,215.045 407.65,214.883 Q405.793,214.722 404.594,213.294 L389.474,195.294 Q388.275,193.867 388.437,192.01 Q388.598,190.153 390.026,188.954 Q391.453,187.755 393.31,187.917 Q395.167,188.078 396.366,189.506 Z"/><path fill="#1F305E" d="M433.051,187.45 Q432.559,186.599 431.636,186.263 Q430.712,185.927 429.788,186.263 Q428.865,186.6 428.374,187.451 Q427.883,188.303 428.054,189.271 Q428.225,190.239 428.979,190.87 Q429.732,191.501 430.715,191.5 Q434.975,191.496 438.24,194.231 Q441.506,196.966 442.248,201.16 Q442.991,205.355 440.863,209.045 Q438.735,212.735 434.733,214.193 Q430.731,215.651 426.728,214.195 Q422.725,212.739 420.595,209.05 Q419.663,207.436 420.145,205.635 Q420.628,203.835 422.242,202.903 Q423.856,201.971 425.657,202.453 Q427.457,202.936 428.389,204.55 Q428.881,205.401 429.804,205.737 Q430.728,206.073 431.652,205.737 Q432.575,205.4 433.066,204.549 Q433.557,203.697 433.386,202.729 Q433.215,201.761 432.461,201.13 Q431.708,200.499 430.725,200.5 Q426.465,200.504 423.2,197.769 Q419.934,195.034 419.192,190.84 Q418.449,186.645 420.577,182.955 Q422.705,179.265 426.707,177.807 Q430.709,176.349 434.712,177.805 Q438.715,179.261 440.845,182.95 Q441.777,184.564 441.295,186.365 Q440.812,188.165 439.198,189.097 Q437.584,190.029 435.783,189.547 Q433.983,189.064 433.051,187.45 Z"/><path fill="#1F305E" d="M486.7,196 Q486.7,203.829 481.164,209.364 Q475.629,214.9 467.8,214.9 Q459.971,214.9 454.436,209.364 Q448.9,203.829 448.9,196 Q448.9,188.171 454.436,182.636 Q459.971,177.1 467.8,177.1 Q475.629,177.1 481.164,182.636 Q486.7,188.171 486.7,196 Z M477.7,196 Q477.7,191.899 474.8,189 Q471.901,186.1 467.8,186.1 Q463.699,186.1 460.8,189 Q457.9,191.899 457.9,196 Q457.9,200.101 460.8,203 Q463.699,205.9 467.8,205.9 Q471.901,205.9 474.8,203 Q477.7,200.101 477.7,196 Z"/><path fill="#1F305E" d="M457.9,181.6 L457.9,228.4 Q457.9,230.264 456.582,231.582 Q455.264,232.9 453.4,232.9 Q451.536,232.9 450.218,231.582 Q448.9,230.264 448.9,228.4 L448.9,181.6 Q448.9,179.736 450.218,178.418 Q451.536,177.1 453.4,177.1 Q455.264,177.1 456.582,178.418 Q457.9,179.736 457.9,181.6 Z"/><path fill="#1F305E" d="M529.18,196 Q529.18,203.829 523.644,209.364 Q518.109,214.9 510.28,214.9 Q502.451,214.9 496.916,209.364 Q491.38,203.829 491.38,196 Q491.38,188.171 496.916,182.636 Q502.451,177.1 510.28,177.1 Q518.109,177.1 523.644,182.636 Q529.18,188.171 529.18,196 Z M520.18,196 Q520.18,191.899 517.28,189 Q514.381,186.1 510.28,186.1 Q506.179,186.1 503.28,189 Q500.38,191.899 500.38,196 Q500.38,200.101 503.28,203 Q506.179,205.9 510.28,205.9 Q514.381,205.9 517.28,203 Q520.18,200.101 520.18,196 Z"/><path fill="#1F305E" d="M529.18,181.6 L529.18,210.4 Q529.18,212.264 527.862,213.582 Q526.544,214.9 524.68,214.9 Q522.816,214.9 521.498,213.582 Q520.18,212.264 520.18,210.4 L520.18,181.6 Q520.18,179.736 521.498,178.418 Q522.816,177.1 524.68,177.1 Q526.544,177.1 527.862,178.418 Q529.18,179.736 529.18,181.6 Z"/><path fill="#1F305E" d="M560.328,189.639 Q558.322,187.247 555.307,186.438 Q552.291,185.629 549.357,186.696 Q546.423,187.764 544.632,190.321 Q542.841,192.878 542.841,196 Q542.841,199.122 544.632,201.679 Q546.423,204.236 549.357,205.304 Q552.291,206.371 555.307,205.562 Q558.322,204.753 560.328,202.361 Q561.525,200.932 563.382,200.769 Q565.239,200.606 566.667,201.804 Q568.096,203.001 568.259,204.858 Q568.422,206.715 567.224,208.143 Q563.395,212.71 557.638,214.255 Q551.882,215.799 546.281,213.761 Q540.68,211.724 537.26,206.842 Q533.841,201.96 533.841,196 Q533.841,190.04 537.26,185.158 Q540.68,180.276 546.281,178.239 Q551.882,176.201 557.638,177.745 Q563.395,179.29 567.224,183.857 Q568.422,185.285 568.259,187.142 Q568.096,188.999 566.667,190.196 Q565.239,191.394 563.382,191.231 Q561.525,191.068 560.328,189.639 Z"/><path fill="#1F305E" d="M582.826,200.5 Q584.111,203.057 586.676,204.544 Q589.794,206.35 593.343,205.73 Q596.893,205.11 599.214,202.354 Q600.414,200.928 602.271,200.768 Q604.128,200.609 605.554,201.81 Q606.98,203.01 607.14,204.867 Q607.299,206.724 606.099,208.15 Q601.668,213.413 594.892,214.596 Q588.116,215.78 582.164,212.331 Q576.212,208.882 573.87,202.414 Q571.527,195.946 573.89,189.486 Q576.253,183.025 582.216,179.595 Q588.178,176.165 594.951,177.37 Q601.723,178.575 606.137,183.852 Q610.551,189.128 610.54,196.007 Q610.537,197.869 609.22,199.184 Q607.902,200.5 606.04,200.5 L582.826,200.5 Z M582.804,191.5 L600.486,191.5 Q599.981,190.519 599.234,189.626 Q596.922,186.862 593.374,186.231 Q589.827,185.6 586.703,187.397 Q584.097,188.896 582.804,191.5 Z"/><path fill="#1F305E" d="M631.051,187.45 Q630.559,186.599 629.636,186.263 Q628.712,185.927 627.788,186.263 Q626.865,186.6 626.374,187.451 Q625.883,188.303 626.054,189.271 Q626.225,190.239 626.979,190.87 Q627.732,191.501 628.715,191.5 Q632.975,191.496 636.24,194.231 Q639.506,196.966 640.248,201.16 Q640.991,205.355 638.863,209.045 Q636.735,212.735 632.733,214.193 Q628.731,215.651 624.728,214.195 Q620.725,212.739 618.595,209.05 Q617.663,207.436 618.145,205.635 Q618.628,203.835 620.242,202.903 Q621.856,201.971 623.657,202.453 Q625.457,202.936 626.389,204.55 Q626.881,205.401 627.804,205.737 Q628.728,206.073 629.652,205.737 Q630.575,205.4 631.066,204.549 Q631.557,203.697 631.386,202.729 Q631.215,201.761 630.461,201.13 Q629.708,200.499 628.725,200.5 Q624.465,200.504 621.2,197.769 Q617.934,195.034 617.192,190.84 Q616.449,186.645 618.577,182.955 Q620.705,179.265 624.707,177.807 Q628.709,176.349 632.712,177.805 Q636.715,179.261 638.845,182.95 Q639.777,184.564 639.295,186.365 Q638.812,188.165 637.198,189.097 Q635.584,190.029 633.783,189.547 Q631.983,189.064 631.051,187.45 Z"/></svg>